<svg xmlns="http://www.w3.org/2000/svg" width="455" height="48" fill="none"><path fill="#000" d="M236.711 22.236c.153.154.153.307 0 .46L224.276 39.72c-.153.153-.307.306-.46.153l-.768-.613c-.153-.154-.153-.307 0-.46l12.281-16.87c.153-.306.307-.306.46-.306l.922.613ZM10.439 39.105c-.46 0-.614 0-.614-.92 0-.613.153-.92.614-.92l.767-.153c.614-.154.768-.307.768-1.534l.153-7.054c0-4.294-.153-4.754-1.535-5.367-.614-.154-.767-.307-.767-.614 0-.46.307-.613 1.074-.92.768-.307 1.842-.767 2.303-1.074 1.228-.46 1.842-.92 2.302-.92.46.154.768.46.768 1.38v2.608c.614-1.227 1.382-1.994 2.61-2.76.92-.46 2.149-.767 3.377-.767 2.763 0 4.605 1.533 5.22 3.833h.153c.614-1.226 1.381-2.3 2.763-3.067.92-.46 2.302-.767 3.53-.767 2.917 0 4.606 1.227 5.22 3.681.307 1.534.307 3.067.307 5.674v6.288c0 1.073.153 1.38.92 1.38l.768.153c.614 0 .614.154.614.92 0 .767-.153.92-.614.92-1.228-.153-2.456-.153-3.53-.153-1.075 0-3.07.153-4.299.153-.46 0-.614-.153-.614-.92s.154-.92.768-.92l1.074-.153c.614 0 .768-.307.768-1.38V30.21c0-2.454 0-3.987-.46-5.214-.461-1.38-1.536-2.147-2.917-2.147-1.689 0-3.838 1.227-3.838 5.52v7.362c0 1.073.154 1.38.921 1.38l.46.153c.615.154.615.154.615.92 0 .767-.154.92-.614.92-1.228-.153-2.457-.153-3.531-.153-1.075 0-2.917.153-3.991.153-.46 0-.768-.153-.768-.92s.154-.92.768-.92l.92-.153c.461 0 .768-.307.768-1.38V30.21c0-2.454 0-3.987-.46-5.214-.614-1.38-1.535-2.147-2.917-2.147-1.688 0-3.838 1.227-3.838 5.52l.154 7.208c0 1.074 0 1.38.614 1.534l.614.153c.614.307.614.46.614 1.074 0 .766-.154 1.073-.614.92-1.228-.154-1.842-.154-3.377-.154-1.535-.153-2.763 0-3.991 0ZM64.013 35.885c0-3.527 3.53-5.214 9.825-7.054 0-1.38.153-2.454.153-3.067 0-3.067-1.074-3.374-2.456-3.374-1.842 0-2.302.92-2.917 2.76-.307 1.38-1.381 2.147-2.456 2.147-1.074 0-1.842-.767-1.842-1.84 0-.614.154-1.227.921-1.994.921-.92 3.991-3.067 7.83-3.067 3.53 0 4.911 1.534 4.911 5.214 0 1.687-.153 4.14-.153 7.208 0 2.607.154 4.14 1.228 4.14.614 0 .768-.153 1.228-.613.154-.153.307-.153.46-.153.308 0 .615.306.615.766 0 .154-.154.46-.154.614-.614.767-2.303 2.607-3.991 2.607-1.382 0-2.456-.614-3.07-2.76-1.382 1.533-3.531 2.76-5.987 2.76-2.917-.46-4.145-2.147-4.145-4.294Zm6.294 1.073c1.228 0 2.61-1.073 3.53-1.84-.153-1.38-.153-2.454-.153-3.22v-1.84c-3.991 1.533-5.68 2.3-5.68 4.6.154 1.84 1.382 2.3 2.303 2.3ZM105.614 39.105c-.46 0-.614-.153-.614-.92s.154-.92.768-.92l1.228-.153c.767 0 .767-.46.767-1.227l.154-7.514c0-3.988-.154-4.141-1.535-4.754-.614-.154-.768-.307-.768-.767s.154-.614 1.075-.92c.767-.307 1.381-.614 1.995-.92.921-.46 2.149-1.38 2.763-1.38.461 0 .768.306.768 1.226v2.914h.153c1.689-3.067 3.224-3.68 4.913-3.68 1.535 0 2.763.613 2.763 1.84s-.614 2.607-1.996 2.607c-.614 0-1.074-.154-1.688-.46-.307-.154-.768-.46-1.535-.46-1.382 0-2.61 1.993-2.61 4.754v7.514c0 .92 0 1.227 1.228 1.227l1.075.153c.614 0 .767.307.767.92 0 .767-.153.92-.614.92-1.075-.153-3.224-.153-4.298-.153-1.382 0-3.531.153-4.759.153ZM145.987 34.505l.153-11.195h-1.535c-.614 0-1.074-.153-1.074-.767 0-.46.614-1.073 1.381-1.84 1.075-1.074 1.535-1.534 3.992-4.754.307-.307.614-.614 1.074-.614.307 0 .614.154.614.614v4.754c1.228 0 3.838-.154 5.219-.154.614 0 .768.46.461 1.074l-.614 1.38c-.154.307-.307.46-.768.46h-4.605v8.895c0 3.527 0 5.06 2.456 5.06 1.228 0 1.996-.766 2.61-.766.46 0 .614.306.614.767 0 .306-.307.613-.614.92-.768.613-2.456 1.38-4.452 1.38-2.303 0-5.066-1.227-4.912-5.214ZM180.066 35.885c0-3.527 3.53-5.214 9.824-7.054 0-1.38.154-2.454.154-3.067 0-3.067-1.075-3.374-2.456-3.374-1.842 0-2.303.92-2.917 2.76-.307 1.38-1.382 2.147-2.456 2.147-1.075 0-1.842-.767-1.842-1.84 0-.614.153-1.227.921-1.994.921-.92 3.991-3.067 7.829-3.067 3.531 0 4.912 1.534 4.912 5.214 0 1.687-.153 4.14-.153 7.208 0 2.607.153 4.14 1.228 4.14.614 0 .767-.153 1.228-.613.153-.153.307-.153.46-.153.307 0 .614.306.614.766 0 .154-.153.46-.153.614-.614.767-2.303 2.607-3.991 2.607-1.382 0-2.457-.614-3.071-2.76-1.381 1.533-3.53 2.76-5.986 2.76-2.917-.46-4.145-2.147-4.145-4.294Zm6.294 1.073c1.228 0 2.609-1.073 3.53-1.84-.153-1.38-.153-2.454-.153-3.22v-1.84c-3.991 1.533-5.68 2.3-5.68 4.6.154 1.84 1.382 2.3 2.303 2.3ZM268.026 37.419c-1.074 1.38-1.688 1.84-2.149 1.84-.46 0-.767-.154-.767-1.227 0-2.454.153-8.281.153-11.348V15.489c0-3.067 0-3.22-1.381-3.834-1.075-.46-1.536-.614-1.536-1.073 0-.614.615-.767 1.075-.92 1.382-.46 2.61-.767 4.298-1.534.307-.154.768-.307 1.075-.307.46 0 .767.153.767.92 0 1.534-.307 2.914-.307 13.035 1.382-1.227 3.224-1.687 5.066-1.687 4.759 0 8.75 3.681 8.75 9.202 0 7.054-5.373 10.428-9.671 10.428-1.688 0-3.838-.154-5.373-2.3Zm4.759-15.03c-1.688 0-3.684 1.074-3.684 2.608v7.974c0 3.22 1.842 4.754 4.145 4.754 3.377 0 5.219-2.913 5.219-6.44 0-6.442-2.917-8.895-5.68-8.895ZM307.325 30.058c0-4.908 3.223-9.815 9.364-9.815 4.912 0 7.675 4.294 7.675 7.36 0 .768-.46 1.074-1.228 1.074H311.93c0 5.674 3.07 8.435 5.68 8.435 1.995 0 3.53-.92 4.912-2.147.614-.46.921-.92 1.382-.92.46 0 .767.306.767.767 0 .613-.46 1.226-.921 1.84-1.075 1.227-3.224 3.22-7.061 3.22-6.141-.153-9.364-4.447-9.364-9.814Zm11.513-3.528c.614 0 .767-.153.767-.92a3.592 3.592 0 0 0-3.684-3.527c-2.149 0-3.838 1.84-3.991 4.754l6.908-.307Z"/><g filter="url(#a)"><path fill="#000" d="M348.925 39.105c-.46 0-.614 0-.614-.92 0-.613.307-.92.614-.92l.614-.153c.615-.154.768-.307.768-1.534l.154-7.054c0-4.14 0-4.754-1.689-5.367-.461-.154-.614-.307-.614-.614 0-.46.46-.613 1.228-.92.768-.307 1.842-.92 2.303-1.074 1.228-.613 1.535-.92 1.995-.92.614 0 .768.307.768 1.227v2.454c.614-1.227 1.535-1.994 2.763-2.607.921-.46 2.149-.767 3.377-.767 2.61 0 4.605 1.534 5.219 3.834.307 1.534.461 2.914.461 5.52v6.288c0 1.074.153 1.38.767 1.38l.768.154c.614 0 .768.153.768.92s-.154.92-.768.92c-1.228-.153-2.456-.153-3.531-.153-1.074 0-2.763.153-3.991.153-.46 0-.767-.153-.767-.92s.307-.92.767-.92l.921-.154c.768-.153.768-.306.768-1.38v-5.52c0-2.454 0-3.988-.461-5.215-.46-1.38-1.688-2.146-3.07-2.146-1.689 0-3.991 1.226-3.838 5.52l.154 7.208c0 1.073 0 1.38.614 1.534l.614.153c.614.153.614.306.614.92 0 .767-.154 1.073-.614.92-1.228-.153-1.689-.153-3.377-.153-1.535.153-2.456.306-3.685.306Z"/></g><path fill="#000" d="M391.754 30.058c0-4.908 3.224-9.815 9.364-9.815 4.913 0 7.676 4.294 7.676 7.36 0 .768-.461 1.074-1.228 1.074H396.36c0 5.674 3.07 8.435 5.679 8.435 1.996 0 3.531-.92 4.913-2.147.614-.46.921-.92 1.381-.92.461 0 .768.306.768.767 0 .613-.461 1.226-.921 1.84-1.075 1.227-3.224 3.22-7.062 3.22-6.14-.153-9.364-4.447-9.364-9.814Zm11.667-3.528c.614 0 .768-.153.768-.92a3.592 3.592 0 0 0-3.685-3.527c-2.149 0-3.837 1.84-3.991 4.754l6.908-.307ZM434.737 34.505l.153-11.195h-1.535c-.614 0-1.074-.153-1.074-.767 0-.46.614-1.073 1.381-1.84 1.075-1.074 1.535-1.534 3.992-4.754.307-.307.614-.614 1.074-.614.307 0 .614.154.614.614v4.754c1.228 0 3.838-.154 5.219-.154.614 0 .768.46.461 1.074l-.768 1.38c-.153.307-.307.46-.767.46h-4.605v8.895c0 3.527 0 5.06 2.456 5.06 1.228 0 1.995-.766 2.609-.766.461 0 .614.306.614.767 0 .306-.153.613-.614.92-.767.613-2.456 1.38-4.451 1.38-2.149 0-4.913-1.227-4.759-5.214Z"/><defs><filter id="a" width="28.417" height="27.476" x="344.158" y="19.629" color-interpolation-filters="sRGB" filterUnits="userSpaceOnUse"><feFlood flood-opacity="0" result="BackgroundImageFix"/><feColorMatrix in="SourceAlpha" result="hardAlpha" values="0 0 0 0 0 0 0 0 0 0 0 0 0 0 0 0 0 0 127 0"/><feOffset dy="4"/><feGaussianBlur stdDeviation="2"/><feComposite in2="hardAlpha" operator="out"/><feColorMatrix values="0 0 0 0 0 0 0 0 0 0 0 0 0 0 0 0 0 0 0.25 0"/><feBlend in2="BackgroundImageFix" result="effect1_dropShadow_1_38"/><feBlend in="SourceGraphic" in2="effect1_dropShadow_1_38" result="shape"/></filter></defs></svg>